<svg width="24" height="24" viewBox="0 0 24 24" fill="none" xmlns="http://www.w3.org/2000/svg">
<path d="M15.8765 0.489685C14.832 0.56193 13.6112 1.2305 12.8998 2.1011C12.2508 2.8909 11.7169 4.06395 11.9251 5.20394C13.0663 5.23945 14.2455 4.55497 14.9287 3.66967C15.5679 2.84559 16.0516 1.67988 15.8765 0.489685Z" fill="#FE2C55"/>
<path d="M20.0043 7.06284C19.0014 5.80529 17.592 5.0755 16.261 5.0755C14.5039 5.0755 13.7606 5.91672 12.5398 5.91672C11.2811 5.91672 10.3247 5.07795 8.80516 5.07795C7.31252 5.07795 5.72314 5.99019 4.71539 7.55018C3.29866 9.74691 3.54111 13.8771 5.83702 17.395C6.65864 18.6538 7.75578 20.0693 9.19087 20.0816C10.468 20.0938 10.828 19.2624 12.5582 19.2538C14.2884 19.244 14.6166 20.0926 15.8912 20.0791C17.3276 20.0681 18.4847 18.4995 19.3063 17.2407C19.8953 16.3383 20.1145 15.884 20.5712 14.8652C17.2492 13.6004 16.7165 8.8763 20.0043 7.06284Z" fill="#FE2C55"/>
</svg>
