<svg width="24" height="24" viewBox="0 0 24 24" fill="none" xmlns="http://www.w3.org/2000/svg">
<g clip-path="url(#clip0_2742_22760)">
<path d="M13.4213 12.0018L3.95165 21.1204C3.5082 20.8173 3.24492 20.3132 3.24957 19.7761V4.22741C3.24492 3.69033 3.5082 3.18624 3.95165 2.88318L13.4213 12.0018Z" fill="#FE2C55"/>
<path d="M16.7348 8.81656L13.4213 12.0016L3.95166 2.88306C3.98734 2.8554 4.0245 2.82968 4.06295 2.806C4.56343 2.50266 5.18857 2.49287 5.69832 2.78031L16.7348 8.81656Z" fill="#89152B"/>
<path d="M20.7505 12.0017C20.7567 12.6081 20.4272 13.1681 19.8943 13.4573L16.7349 15.1868L13.4214 12.0017L16.7349 8.81665L19.8943 10.5462C20.4272 10.8354 20.7567 11.3954 20.7505 12.0017Z" fill="#701C2C"/>
<path d="M16.7348 15.1868L5.69832 21.2231C5.18745 21.506 4.56468 21.4962 4.06295 21.1974C4.0245 21.1737 3.98734 21.148 3.95166 21.1203L13.4213 12.0017L16.7348 15.1868Z" fill="#89152B"/>
</g>
<defs>
<clipPath id="clip0_2742_22760">
<rect width="18.8571" height="18.8571" fill="white" transform="translate(2.57153 2.57141)"/>
</clipPath>
</defs>
</svg>
