<svg width="54" height="54" viewBox="0 0 54 54" fill="none" xmlns="http://www.w3.org/2000/svg">
<path d="M42.6138 9.17474C40.2178 6.74062 36.9302 5.40002 33.3558 5.40002C30.684 5.40002 28.2371 6.19122 26.083 7.75145C24.9961 8.53901 24.0112 9.50253 23.1429 10.6271C22.2749 9.50286 21.2896 8.53901 20.2023 7.75145C18.0486 6.19122 15.6017 5.40002 12.9299 5.40002C9.35553 5.40002 6.06751 6.74062 3.67151 9.17474C1.30412 11.5804 0 14.8669 0 18.4293C0 22.0958 1.45879 25.4521 4.59072 28.992C7.39246 32.1584 11.4192 35.3728 16.0823 39.095C17.6746 40.3661 19.4795 41.8069 21.3535 43.3417C21.8486 43.7479 22.4839 43.9715 23.1429 43.9715C23.8014 43.9715 24.4371 43.7479 24.9315 43.3423C26.8055 41.8072 28.6115 40.3658 30.2044 39.094C34.8668 35.3725 38.8936 32.1584 41.6954 28.9917C44.8273 25.4521 46.2857 22.0958 46.2857 18.4289C46.2857 14.8669 44.9816 11.5804 42.6138 9.17474Z" fill="#25F4EE"/>
<path d="M50.3282 13.8033C47.9322 11.3692 44.6445 10.0286 41.0701 10.0286C38.3983 10.0286 35.9515 10.8198 33.7974 12.38C32.7104 13.1675 31.7256 14.1311 30.8572 15.2557C29.9892 14.1314 29.004 13.1675 27.9167 12.38C25.7629 10.8198 23.3161 10.0286 20.6443 10.0286C17.0699 10.0286 13.7819 11.3692 11.3859 13.8033C9.01847 16.209 7.71436 19.4955 7.71436 23.0578C7.71436 26.7244 9.17314 30.0807 12.3051 33.6205C15.1068 36.787 19.1336 40.0014 23.7967 43.7235C25.389 44.9946 27.1938 46.4355 29.0679 47.9702C29.563 48.3764 30.1983 48.6 30.8572 48.6C31.5158 48.6 32.1514 48.3764 32.6458 47.9709C34.5199 46.4358 36.3258 44.9943 37.9188 43.7225C42.5812 40.001 46.608 36.787 49.4097 33.6202C52.5416 30.0807 54.0001 26.7244 54.0001 23.0575C54.0001 19.4955 52.696 16.209 50.3282 13.8033Z" fill="#FE2C55"/>
<path d="M45.8221 11.4891C43.5059 9.05496 40.3278 7.71436 36.8726 7.71436C34.2899 7.71436 31.9246 8.50555 29.8423 10.0658C28.7916 10.8533 27.8395 11.8169 27.0001 12.9415C26.161 11.8172 25.2086 10.8533 24.1576 10.0658C22.0756 8.50555 19.7103 7.71436 17.1276 7.71436C13.6723 7.71436 10.4939 9.05496 8.17779 11.4891C5.88931 13.8947 4.62866 17.1812 4.62866 20.7436C4.62866 24.4102 6.03882 27.7665 9.06635 31.3063C11.7747 34.4728 15.6673 37.6872 20.1749 41.4093C21.7141 42.6804 23.4588 44.1212 25.2704 45.656C25.749 46.0622 26.3631 46.2858 27.0001 46.2858C27.6367 46.2858 28.2512 46.0622 28.7291 45.6567C30.5407 44.1216 32.2864 42.6801 33.8263 41.4083C38.3333 37.6868 42.2258 34.4728 44.9342 31.306C47.9617 27.7665 49.3715 24.4102 49.3715 20.7433C49.3715 17.1812 48.1109 13.8947 45.8221 11.4891Z" fill="white"/>
</svg>
